<svg id="Capa_1" data-name="Capa 1" xmlns="http://www.w3.org/2000/svg" xmlns:xlink="http://www.w3.org/1999/xlink" viewBox="0 0 325 206"><defs><style>.cls-1{fill:url(#linear-gradient);}.cls-2{fill:url(#linear-gradient-2);}.cls-3{fill:url(#linear-gradient-3);}.cls-4{fill:#d5ecfb;}.cls-5{fill:#97c55f;}.cls-6{fill:#c13e1b;}.cls-7{fill:#db5224;}.cls-8{fill:#ec6131;}.cls-9{fill:url(#linear-gradient-4);}.cls-10{fill:url(#linear-gradient-5);}.cls-11{fill:url(#linear-gradient-6);}.cls-12{fill:url(#linear-gradient-7);}.cls-13{fill:#1f396f;}.cls-14{fill:#1a3e78;}.cls-15{fill:#3a6dac;}.cls-16{fill:#284f8a;}.cls-17{fill:#fff;}.cls-18{fill:#5793ce;}.cls-19{fill:url(#linear-gradient-8);}.cls-20{fill:url(#linear-gradient-9);}.cls-21{fill:url(#linear-gradient-10);}.cls-22{fill:url(#linear-gradient-11);}.cls-23{fill:url(#linear-gradient-12);}.cls-24{fill:url(#linear-gradient-13);}.cls-25{fill:url(#linear-gradient-15);}.cls-26{fill:url(#linear-gradient-16);}.cls-27{fill:url(#linear-gradient-17);}.cls-28{fill:url(#linear-gradient-18);}.cls-29{fill:url(#linear-gradient-19);}.cls-30{fill:url(#linear-gradient-20);}.cls-31{fill:url(#linear-gradient-21);}.cls-32{fill:#f8c0b0;}.cls-33{fill:#eb9d93;}.cls-34{fill:url(#linear-gradient-22);}.cls-35{fill:url(#linear-gradient-23);}.cls-36{fill:url(#linear-gradient-24);}.cls-37{fill:url(#linear-gradient-25);}.cls-38{fill:url(#linear-gradient-26);}.cls-39{fill:url(#linear-gradient-27);}.cls-40{fill:url(#linear-gradient-28);}.cls-41{fill:url(#linear-gradient-29);}.cls-42{fill:url(#linear-gradient-30);}.cls-43{fill:url(#linear-gradient-31);}.cls-44{fill:url(#linear-gradient-32);}.cls-45{fill:url(#linear-gradient-33);}.cls-46{fill:url(#linear-gradient-34);}.cls-47{fill:url(#linear-gradient-35);}.cls-48{fill:url(#linear-gradient-36);}.cls-49{fill:url(#linear-gradient-37);}.cls-50{fill:url(#linear-gradient-38);}.cls-51{fill:url(#linear-gradient-39);}.cls-52{fill:url(#linear-gradient-40);}</style><linearGradient id="linear-gradient" x1="134.73" y1="95.47" x2="163.25" y2="95.47" gradientUnits="userSpaceOnUse"><stop offset="0" stop-color="#f18a00"/><stop offset="1" stop-color="#cf300e"/></linearGradient><linearGradient id="linear-gradient-2" x1="153.75" y1="58.92" x2="163.25" y2="58.92" gradientUnits="userSpaceOnUse"><stop offset="0" stop-color="#232247"/><stop offset="1" stop-color="#3d619b"/></linearGradient><linearGradient id="linear-gradient-3" x1="144.24" y1="58.92" x2="153.75" y2="58.92" xlink:href="#linear-gradient-2"/><linearGradient id="linear-gradient-4" x1="144.24" y1="69.9" x2="153.75" y2="69.9" xlink:href="#linear-gradient-2"/><linearGradient id="linear-gradient-5" x1="134.73" y1="69.9" x2="144.24" y2="69.9" xlink:href="#linear-gradient-2"/><linearGradient id="linear-gradient-6" x1="153.75" y1="81.79" x2="163.25" y2="81.79" xlink:href="#linear-gradient-2"/><linearGradient id="linear-gradient-7" x1="144.24" y1="81.79" x2="153.75" y2="81.79" xlink:href="#linear-gradient-2"/><linearGradient id="linear-gradient-8" x1="129.65" y1="141.2" x2="184.08" y2="141.2" xlink:href="#linear-gradient"/><linearGradient id="linear-gradient-9" x1="258.59" y1="184.2" x2="273.56" y2="184.2" xlink:href="#linear-gradient-2"/><linearGradient id="linear-gradient-10" x1="274.48" y1="174.91" x2="289.45" y2="174.91" xlink:href="#linear-gradient-2"/><linearGradient id="linear-gradient-11" x1="290.32" y1="165.84" x2="305.29" y2="165.84" xlink:href="#linear-gradient-2"/><linearGradient id="linear-gradient-12" x1="274.48" y1="161.22" x2="281.96" y2="161.22" xlink:href="#linear-gradient"/><linearGradient id="linear-gradient-13" x1="281.96" y1="161.22" x2="289.45" y2="161.22" xlink:href="#linear-gradient"/><linearGradient id="linear-gradient-15" x1="258.59" y1="175.56" x2="266.08" y2="175.56" xlink:href="#linear-gradient"/><linearGradient id="linear-gradient-16" x1="266.08" y1="175.56" x2="273.56" y2="175.56" xlink:href="#linear-gradient"/><linearGradient id="linear-gradient-17" x1="258.59" y1="166.92" x2="273.56" y2="166.92" xlink:href="#linear-gradient"/><linearGradient id="linear-gradient-18" x1="290.32" y1="147.83" x2="297.8" y2="147.83" xlink:href="#linear-gradient"/><linearGradient id="linear-gradient-19" x1="297.8" y1="147.83" x2="305.29" y2="147.83" xlink:href="#linear-gradient"/><linearGradient id="linear-gradient-20" x1="290.32" y1="129.83" x2="305.29" y2="129.83" xlink:href="#linear-gradient"/><linearGradient id="linear-gradient-21" x1="274.48" y1="147.54" x2="289.45" y2="147.54" xlink:href="#linear-gradient"/><linearGradient id="linear-gradient-22" x1="114.37" y1="71.88" x2="131.82" y2="71.88" xlink:href="#linear-gradient"/><linearGradient id="linear-gradient-23" x1="269.95" y1="75.67" x2="278.66" y2="75.67" xlink:href="#linear-gradient-2"/><linearGradient id="linear-gradient-24" x1="47.22" y1="169.71" x2="78.2" y2="169.71" xlink:href="#linear-gradient"/><linearGradient id="linear-gradient-25" x1="72.87" y1="164.72" x2="78.2" y2="164.72" xlink:href="#linear-gradient"/><linearGradient id="linear-gradient-26" x1="69.41" y1="166.3" x2="72.87" y2="166.3" xlink:href="#linear-gradient"/><linearGradient id="linear-gradient-27" x1="55.81" y1="167.6" x2="69.41" y2="167.6" xlink:href="#linear-gradient"/><linearGradient id="linear-gradient-28" x1="50.01" y1="169.87" x2="55.83" y2="169.87" xlink:href="#linear-gradient"/><linearGradient id="linear-gradient-29" x1="47.22" y1="168.34" x2="50.01" y2="168.34" xlink:href="#linear-gradient"/><linearGradient id="linear-gradient-30" x1="47.22" y1="161.25" x2="78.2" y2="161.25" xlink:href="#linear-gradient"/><linearGradient id="linear-gradient-31" x1="45" y1="179.95" x2="67.68" y2="179.95" xlink:href="#linear-gradient-2"/><linearGradient id="linear-gradient-32" x1="45" y1="177.5" x2="64.63" y2="177.5" xlink:href="#linear-gradient-2"/><linearGradient id="linear-gradient-33" x1="64.63" y1="181.51" x2="67.68" y2="181.51" xlink:href="#linear-gradient-2"/><linearGradient id="linear-gradient-34" x1="93.52" y1="50.23" x2="101.99" y2="50.23" xlink:href="#linear-gradient"/><linearGradient id="linear-gradient-35" x1="7.26" y1="171.53" x2="13.4" y2="171.53" xlink:href="#linear-gradient"/><linearGradient id="linear-gradient-36" x1="237.18" y1="10.88" x2="244.5" y2="10.88" xlink:href="#linear-gradient"/><linearGradient id="linear-gradient-37" x1="204.72" y1="52.5" x2="226.11" y2="52.5" xlink:href="#linear-gradient"/><linearGradient id="linear-gradient-38" x1="204.18" y1="53.05" x2="224.39" y2="53.05" xlink:href="#linear-gradient"/><linearGradient id="linear-gradient-39" x1="120.46" y1="32.65" x2="141.45" y2="32.65" xlink:href="#linear-gradient-2"/><linearGradient id="linear-gradient-40" x1="119.94" y1="33.2" x2="139.76" y2="33.2" xlink:href="#linear-gradient-2"/></defs><polygon class="cls-1" points="153.75 95.47 163.25 89.98 153.75 84.49 144.24 89.98 144.24 89.98 134.73 95.47 144.24 100.96 144.24 100.96 153.75 106.45 163.25 100.96 153.75 95.47 153.75 95.47"/><polygon class="cls-2" points="153.75 81.79 153.75 41.53 163.25 36.04 163.25 76.3 153.75 81.79"/><polygon class="cls-3" points="153.75 41.53 144.24 36.04 144.24 76.3 153.75 81.79 153.75 41.53"/><polygon class="cls-4" points="163.25 36.04 153.75 30.55 144.24 36.04 153.75 41.53 163.25 36.04"/><polygon class="cls-5" points="163.25 83.62 153.75 78.13 153.75 81.79 163.25 87.28 163.25 83.62"/><polygon class="cls-6" points="144.24 87.28 144.24 58 153.75 52.51 153.75 81.79 144.24 87.28"/><polygon class="cls-7" points="144.24 58 134.73 52.51 134.73 81.79 144.24 87.28 144.24 58"/><polygon class="cls-8" points="153.75 52.51 144.24 47.02 134.73 52.51 144.24 58 153.75 52.51"/><polygon class="cls-9" points="144.24 87.28 144.24 58 153.75 52.51 153.75 81.79 144.24 87.28"/><polygon class="cls-10" points="144.24 58 134.73 52.51 134.73 81.79 144.24 87.28 144.24 58"/><polygon class="cls-4" points="153.75 52.51 144.24 47.02 134.73 52.51 144.24 58 153.75 52.51"/><polygon class="cls-11" points="153.75 92.77 153.75 76.3 163.25 70.81 163.25 87.28 153.75 92.77"/><polygon class="cls-12" points="153.75 76.3 144.24 70.81 144.24 87.28 153.75 92.77 153.75 76.3"/><polygon class="cls-4" points="163.25 70.81 153.75 65.32 144.24 70.81 153.75 76.3 163.25 70.81"/><rect class="cls-13" x="276.19" y="112.37" width="1.14" height="3.31" transform="translate(318.51 -182.38) rotate(75.63)"/><rect class="cls-13" x="274.55" y="113.96" width="1.14" height="3.31" transform="translate(318.81 -179.6) rotate(75.62)"/><rect class="cls-13" x="272.92" y="115.56" width="1.14" height="3.31" transform="translate(319.13 -176.82) rotate(75.62)"/><rect class="cls-13" x="271.28" y="117.15" width="1.14" height="3.31" transform="translate(319.46 -174.03) rotate(75.63)"/><path class="cls-4" d="M193.69,195.27l-71.82-41.46c-2-1.18-1.77-3.23.57-4.58L171.34,121c2.35-1.36,5.9-1.5,7.93-.33l71.81,41.46c2,1.17,1.78,3.22-.57,4.58l-48.9,28.22C199.27,196.29,195.72,196.44,193.69,195.27Z"/><path class="cls-14" d="M253.74,80.58l-73-42.11a2.8,2.8,0,0,0-2.5-.33h0l-.12,0,0,0-2.37,1.12,2.58,1.28s0,.09,0,.14l0,60c0,3,1.86,6.5,4.15,7.82l71,41,.41,3.34,2.59-1.23a3.58,3.58,0,0,0,1.4-3.26l0-60C257.88,85.41,256,81.9,253.74,80.58Z"/><path class="cls-15" d="M253.74,80.58l-73-42.11a2.8,2.8,0,0,0-2.5-.33h0l-.12,0,0,0-2.37,1.12,2.58,1.28s0,.09,0,.14l0,39.52,33.22,26.25,45.1-22.7A8.19,8.19,0,0,0,253.74,80.58Z"/><path class="cls-16" d="M255,81.53l-7.16,3,5.4,4.16,4.51-1.92A10.49,10.49,0,0,0,255,81.53Z"/><path class="cls-4" d="M251.36,152.54l-73-42.11c-2.29-1.32-4.14-4.83-4.15-7.83l0-59.95c0-3,1.86-4.37,4.15-3l73,42.11c2.29,1.32,4.15,4.82,4.15,7.82l0,60C255.5,152.49,253.65,153.86,251.36,152.54Z"/><path class="cls-17" d="M248.93,148.08l-68.17-39.31c-2.1-1.21-3.8-4.42-3.8-7.16l0-54.87c0-2.74,1.7-4,3.79-2.78l68.18,39.31c2.09,1.21,3.79,4.41,3.79,7.16l0,54.86C252.72,148,251,149.28,248.93,148.08Z"/><path class="cls-17" d="M248.93,148.08l-68.17-39.31c-2.1-1.21-3.8-4.42-3.8-7.16l0-54.87c0-2.74,1.7-4,3.79-2.78l68.18,39.31c2.09,1.21,3.79,4.41,3.79,7.16l0,54.86C252.72,148,251,149.28,248.93,148.08Z"/><path class="cls-14" d="M252.45,154.4l-9.82-1.3-63.36-36.58c-2-1.18-5.58-1-7.93.33l-44.9,25.91-5.93-.78v3.36h0a2.34,2.34,0,0,0,1.36,2.09l71.82,41.46c2,1.17,5.58,1,7.92-.33l48.9-28.22c1.32-.77,2-1.75,1.94-2.67h0Z"/><path class="cls-15" d="M204.84,131.28l-4.5-2.6h-49.5l-24.4,14.08-5.93-.78v3.36h0a2.34,2.34,0,0,0,1.36,2.09l71.82,41.46a7.43,7.43,0,0,0,4.09.76Z"/><path class="cls-18" d="M123.14,142.32l-2.63-.34v3.36h0a2.34,2.34,0,0,0,1.36,2.09l1.27.73Z"/><path class="cls-16" d="M194.41,189.22a9.19,9.19,0,0,0,6.73-.42v-7.51h-6.73Z"/><path class="cls-4" d="M193.69,185.52l-71.82-41.46c-2-1.17-1.77-3.22.57-4.57l48.9-28.23c2.35-1.35,5.9-1.5,7.93-.33l71.81,41.47c2,1.17,1.78,3.22-.57,4.57l-48.9,28.22C199.27,186.55,195.72,186.69,193.69,185.52Z"/><path class="cls-17" d="M250.51,155.74,201.61,184c-2.34,1.36-5.89,1.5-7.92.33l-71.82-41.46a2.66,2.66,0,0,1-1.26-1.38,2.17,2.17,0,0,0,1.26,2.61l71.82,41.46c2,1.18,5.58,1,7.92-.33L250.51,157c1.58-.91,2.2-2.13,1.83-3.19A3.79,3.79,0,0,1,250.51,155.74Z"/><path class="cls-14" d="M152.42,130.34l-3.25-1.88c-.26-.15-.23-.41.07-.59l3.84-2.21a1.07,1.07,0,0,1,1,0l3.25,1.87c.26.15.23.42-.07.59l-3.84,2.21A1.1,1.1,0,0,1,152.42,130.34Z"/><path class="cls-14" d="M157.43,133.23l-3.24-1.87c-.27-.15-.23-.42.07-.59l3.83-2.22a1.15,1.15,0,0,1,1,0l3.25,1.88c.26.15.23.41-.07.59l-3.84,2.21A1.15,1.15,0,0,1,157.43,133.23Z"/><path class="cls-14" d="M162.45,136.13l-3.25-1.88c-.26-.15-.23-.41.08-.58l3.83-2.22a1.15,1.15,0,0,1,1,0l3.25,1.88c.26.15.23.41-.07.58l-3.84,2.22A1.15,1.15,0,0,1,162.45,136.13Z"/><path class="cls-14" d="M169.39,133.74l-3.25-1.88c-.26-.15-.23-.41.08-.59l3.22-1.86a1.13,1.13,0,0,1,1,0l3.25,1.88c.26.15.23.41-.07.59l-3.22,1.85A1.12,1.12,0,0,1,169.39,133.74Z"/><path class="cls-14" d="M174.41,136.63l-3.25-1.87c-.26-.15-.23-.42.07-.59l3.22-1.86a1.15,1.15,0,0,1,1,0l3.25,1.88c.26.15.23.41-.07.58l-3.22,1.86A1.12,1.12,0,0,1,174.41,136.63Z"/><path class="cls-14" d="M179.43,139.53l-3.25-1.87c-.26-.16-.23-.42.07-.59l3.22-1.86a1.12,1.12,0,0,1,1,0l3.25,1.87c.26.15.23.42-.08.59l-3.21,1.86A1.15,1.15,0,0,1,179.43,139.53Z"/><path class="cls-14" d="M184.45,142.43l-3.25-1.88c-.26-.15-.23-.41.07-.59l3.22-1.85a1.12,1.12,0,0,1,1-.05l3.25,1.88c.26.15.22.41-.08.59l-3.22,1.86A1.13,1.13,0,0,1,184.45,142.43Z"/><path class="cls-14" d="M189.46,145.33l-3.25-1.88c-.26-.15-.22-.41.08-.59l3.22-1.86a1.13,1.13,0,0,1,1,0l3.25,1.88c.26.15.23.41-.07.58l-3.22,1.86A1.12,1.12,0,0,1,189.46,145.33Z"/><path class="cls-14" d="M194.48,148.22l-3.25-1.87c-.26-.15-.23-.42.07-.59l3.22-1.86a1.15,1.15,0,0,1,1,0l3.25,1.87c.26.15.23.42-.07.59l-3.22,1.86A1.15,1.15,0,0,1,194.48,148.22Z"/><path class="cls-14" d="M199.5,151.12l-3.25-1.88c-.26-.15-.23-.41.07-.58l3.22-1.86a1.12,1.12,0,0,1,1-.05l3.25,1.88c.26.15.23.41-.07.59l-3.22,1.86A1.15,1.15,0,0,1,199.5,151.12Z"/><path class="cls-14" d="M204.52,154l-3.25-1.88c-.26-.15-.23-.41.07-.59l3.22-1.86a1.15,1.15,0,0,1,1,0l3.25,1.88c.26.15.22.41-.08.59L205.53,154A1.1,1.1,0,0,1,204.52,154Z"/><path class="cls-14" d="M209.53,156.91,206.28,155c-.26-.15-.22-.42.08-.59l3.22-1.86a1.15,1.15,0,0,1,1,0l3.24,1.87c.27.16.23.42-.07.59l-3.22,1.86A1.15,1.15,0,0,1,209.53,156.91Z"/><path class="cls-14" d="M214.55,159.81l-3.25-1.88c-.26-.15-.23-.41.08-.58l3.21-1.86a1.09,1.09,0,0,1,1,0l3.25,1.87c.26.15.23.42-.07.59l-3.22,1.86A1.15,1.15,0,0,1,214.55,159.81Z"/><path class="cls-15" d="M176.79,132.37l-3.25-1.88c-.26-.15-.23-.41.07-.59l3.22-1.86a1.15,1.15,0,0,1,1,0l3.25,1.88c.26.15.22.41-.08.58l-3.22,1.86A1.1,1.1,0,0,1,176.79,132.37Z"/><path class="cls-15" d="M171.69,129.43l-3.25-1.88c-.26-.15-.22-.41.08-.59l3.22-1.86a1.13,1.13,0,0,1,1,0l3.25,1.88c.26.15.23.41-.07.58l-3.22,1.86A1.12,1.12,0,0,1,171.69,129.43Z"/><path class="cls-14" d="M166.59,126.48l-7-4c-.26-.15-.22-.41.08-.59l3.22-1.86a1.13,1.13,0,0,1,1,0l7,4c.26.15.23.42-.07.59l-3.22,1.86A1.15,1.15,0,0,1,166.59,126.48Z"/><path class="cls-14" d="M170.16,122.9l-5.68-3.28c-.26-.15-.23-.41.07-.59l3.22-1.86a1.15,1.15,0,0,1,1,0l5.68,3.28c.26.15.23.41-.08.59l-3.21,1.86A1.15,1.15,0,0,1,170.16,122.9Z"/><path class="cls-15" d="M181.8,135.26l-3.25-1.87c-.26-.15-.22-.42.08-.59l3.22-1.86a1.13,1.13,0,0,1,1,0l3.25,1.87c.26.15.23.42-.07.59l-3.22,1.86A1.15,1.15,0,0,1,181.8,135.26Z"/><path class="cls-14" d="M186.82,138.16l-3.25-1.88c-.26-.15-.23-.41.07-.58l3.22-1.86a1.09,1.09,0,0,1,1,0l3.25,1.87c.26.15.23.41-.07.59l-3.22,1.86A1.15,1.15,0,0,1,186.82,138.16Z"/><path class="cls-14" d="M191.84,141.06l-3.25-1.88c-.26-.15-.23-.41.07-.59l3.22-1.86a1.15,1.15,0,0,1,1,0l3.25,1.88c.26.15.23.41-.07.59L192.86,141A1.12,1.12,0,0,1,191.84,141.06Z"/><path class="cls-14" d="M196.86,144l-3.25-1.87c-.26-.15-.23-.42.07-.59l3.22-1.86a1.15,1.15,0,0,1,1,0l3.25,1.87c.26.16.22.42-.08.59l-3.22,1.86A1.1,1.1,0,0,1,196.86,144Z"/><path class="cls-14" d="M201.87,146.85,198.62,145c-.26-.15-.22-.41.08-.58l3.22-1.86a1.12,1.12,0,0,1,1,0l3.24,1.87c.27.15.23.42-.07.59l-3.22,1.86A1.15,1.15,0,0,1,201.87,146.85Z"/><path class="cls-14" d="M206.89,149.75l-3.25-1.88c-.26-.15-.23-.41.08-.59l3.22-1.85a1.1,1.1,0,0,1,1-.05l3.25,1.88c.26.15.23.41-.07.59l-3.22,1.86A1.15,1.15,0,0,1,206.89,149.75Z"/><path class="cls-14" d="M211.91,152.64l-3.25-1.87c-.26-.15-.23-.42.07-.59l3.22-1.86a1.15,1.15,0,0,1,1,0l3.25,1.88c.26.15.23.41-.07.58l-3.22,1.86A1.09,1.09,0,0,1,211.91,152.64Z"/><path class="cls-14" d="M216.93,155.54l-3.25-1.87c-.26-.16-.23-.42.07-.59l3.22-1.86a1.15,1.15,0,0,1,1,0l3.25,1.87c.26.15.23.42-.08.59L218,155.5A1.15,1.15,0,0,1,216.93,155.54Z"/><path class="cls-14" d="M222,158.44l-3.25-1.88c-.27-.15-.23-.41.07-.59l3.22-1.85a1.12,1.12,0,0,1,1-.05l3.25,1.88c.26.15.22.41-.08.59L223,158.4A1.13,1.13,0,0,1,222,158.44Z"/><path class="cls-14" d="M230.87,163.59l-7.09-4.09c-.26-.16-.23-.42.07-.59l3.22-1.86a1.15,1.15,0,0,1,1,0l7.09,4.09c.26.15.22.41-.08.59l-3.22,1.86A1.13,1.13,0,0,1,230.87,163.59Z"/><path class="cls-14" d="M240.63,158l-6-3.46c-.26-.15-.23-.41.07-.58l3.22-1.86a1.09,1.09,0,0,1,1,0l6,3.45c.27.15.23.41-.07.59l-3.22,1.86A1.15,1.15,0,0,1,240.63,158Z"/><path class="cls-14" d="M190.59,134.7l-3.25-1.88c-.26-.15-.23-.41.07-.59l3.22-1.86a1.15,1.15,0,0,1,1,0l3.25,1.88c.26.15.23.41-.07.58l-3.22,1.86A1.12,1.12,0,0,1,190.59,134.7Z"/><path class="cls-14" d="M185.45,131.73l-3.25-1.88c-.26-.15-.23-.41.07-.59l3.22-1.86a1.15,1.15,0,0,1,1,0l3.25,1.88c.26.15.23.41-.08.59l-3.21,1.85A1.12,1.12,0,0,1,185.45,131.73Z"/><path class="cls-15" d="M180.31,128.76l-3.25-1.88c-.26-.15-.23-.41.07-.59l3.22-1.85a1.12,1.12,0,0,1,1,0l3.25,1.88c.26.15.22.41-.08.59l-3.22,1.86A1.13,1.13,0,0,1,180.31,128.76Z"/><path class="cls-14" d="M175.16,125.79l-3.25-1.88c-.26-.15-.22-.41.08-.59l3.22-1.85a1.1,1.1,0,0,1,1,0l3.25,1.88c.26.15.23.41-.07.59l-3.22,1.86A1.15,1.15,0,0,1,175.16,125.79Z"/><path class="cls-14" d="M195.61,137.59l-3.25-1.87c-.26-.15-.23-.42.07-.59l3.22-1.86a1.15,1.15,0,0,1,1,0l3.25,1.87c.26.15.23.42-.07.59l-3.22,1.86A1.15,1.15,0,0,1,195.61,137.59Z"/><path class="cls-14" d="M200.63,140.49l-3.25-1.88c-.26-.15-.23-.41.07-.58l3.22-1.86a1.09,1.09,0,0,1,1,0l3.25,1.87c.26.15.22.41-.08.59l-3.22,1.86A1.13,1.13,0,0,1,200.63,140.49Z"/><path class="cls-14" d="M205.64,143.39l-3.25-1.88c-.26-.15-.22-.41.08-.59l3.22-1.86a1.13,1.13,0,0,1,1,0L210,140.9c.26.15.23.41-.07.59l-3.22,1.85A1.12,1.12,0,0,1,205.64,143.39Z"/><path class="cls-14" d="M210.66,146.28l-3.25-1.87c-.26-.15-.23-.42.08-.59L210.7,142a1.15,1.15,0,0,1,1,0L215,143.8c.26.15.23.41-.07.58l-3.22,1.86A1.12,1.12,0,0,1,210.66,146.28Z"/><path class="cls-14" d="M215.68,149.18l-3.25-1.88c-.26-.15-.23-.41.07-.58l3.22-1.86a1.12,1.12,0,0,1,1,0l3.25,1.87c.26.15.23.42-.07.59l-3.22,1.86A1.15,1.15,0,0,1,215.68,149.18Z"/><path class="cls-14" d="M220.7,152.08l-3.25-1.88c-.26-.15-.23-.41.07-.59l3.22-1.85a1.12,1.12,0,0,1,1,0l3.25,1.88c.26.15.23.41-.08.59L221.71,152A1.13,1.13,0,0,1,220.7,152.08Z"/><path class="cls-14" d="M225.71,155l-3.24-1.87c-.27-.15-.23-.41.07-.59l3.22-1.86a1.15,1.15,0,0,1,1,0l3.24,1.88c.27.15.23.41-.07.58l-3.22,1.86A1.09,1.09,0,0,1,225.71,155Z"/><path class="cls-14" d="M230.73,157.87,227.48,156c-.26-.15-.23-.42.08-.59l3.22-1.86a1.13,1.13,0,0,1,1,0l3.25,1.87c.26.15.23.42-.07.59l-3.22,1.86A1.15,1.15,0,0,1,230.73,157.87Z"/><path class="cls-14" d="M235.75,160.77l-3.25-1.88c-.26-.15-.23-.41.07-.58l3.22-1.86a1.12,1.12,0,0,1,1,0l3.25,1.88c.26.15.23.41-.07.59l-3.22,1.86A1.15,1.15,0,0,1,235.75,160.77Z"/><path class="cls-14" d="M188,127.53l-3.25-1.88c-.26-.15-.23-.41.07-.58l3.22-1.86a1.12,1.12,0,0,1,1,0l3.25,1.87c.26.15.23.42-.07.59L189,127.49A1.15,1.15,0,0,1,188,127.53Z"/><path class="cls-14" d="M183,124.65l-3.25-1.88c-.26-.15-.23-.41.07-.59l3.22-1.85a1.12,1.12,0,0,1,1,0l3.25,1.88c.26.15.22.41-.08.59L184,124.61A1.13,1.13,0,0,1,183,124.65Z"/><path class="cls-14" d="M178,121.77l-3.25-1.88c-.26-.15-.22-.41.08-.59l3.22-1.86a1.13,1.13,0,0,1,1,0l3.25,1.88c.26.15.23.41-.07.58L179,121.72A1.12,1.12,0,0,1,178,121.77Z"/><path class="cls-14" d="M173,118.88,169.72,117c-.26-.15-.23-.42.07-.59l3.22-1.86a1.15,1.15,0,0,1,1,0l3.25,1.87c.26.15.23.42-.07.59L174,118.84A1.15,1.15,0,0,1,173,118.88Z"/><path class="cls-14" d="M178.1,115.92,174.85,114c-.26-.15-.22-.41.08-.59l1.06-.61a1.15,1.15,0,0,1,1,0l3.25,1.87c.26.15.23.42-.07.59l-1.07.62A1.15,1.15,0,0,1,178.1,115.92Z"/><path class="cls-14" d="M184.62,119.68l-3.25-1.88c-.26-.15-.23-.41.07-.58l1.07-.62a1.15,1.15,0,0,1,1,0l3.24,1.88c.27.15.23.41-.07.58l-1.06.62A1.15,1.15,0,0,1,184.62,119.68Z"/><path class="cls-14" d="M189.59,122.55l-3.25-1.88c-.26-.15-.23-.41.08-.58l1.06-.62a1.15,1.15,0,0,1,1,0l3.25,1.88c.26.15.22.41-.08.58l-1.06.62A1.15,1.15,0,0,1,189.59,122.55Z"/><path class="cls-14" d="M194.56,125.42l-3.25-1.87c-.26-.16-.22-.42.08-.59l1.06-.62a1.15,1.15,0,0,1,1,0l3.25,1.88c.26.15.23.41-.07.58l-1.07.62A1.15,1.15,0,0,1,194.56,125.42Z"/><path class="cls-14" d="M199.54,128.29l-3.25-1.87c-.26-.15-.23-.42.07-.59l1.06-.62a1.15,1.15,0,0,1,1,0l3.25,1.88c.26.15.23.41-.07.59l-1.07.61A1.13,1.13,0,0,1,199.54,128.29Z"/><path class="cls-14" d="M227.29,144.32,224,142.44c-.26-.15-.22-.41.08-.59l1.06-.61a1.15,1.15,0,0,1,1,0l3.25,1.87c.26.15.23.42-.07.59l-1.07.62A1.15,1.15,0,0,1,227.29,144.32Z"/><path class="cls-14" d="M232.27,147.19,229,145.31c-.27-.15-.23-.41.07-.59l1.06-.61a1.15,1.15,0,0,1,1,0l3.25,1.87c.26.15.23.42-.07.59l-1.07.62A1.13,1.13,0,0,1,232.27,147.19Z"/><path class="cls-14" d="M237.24,150.06,234,148.18c-.26-.15-.23-.41.07-.58l1.07-.62a1.13,1.13,0,0,1,1,0l3.25,1.87c.26.16.23.42-.07.59l-1.07.62A1.13,1.13,0,0,1,237.24,150.06Z"/><path class="cls-14" d="M242.21,152.93,239,151.05c-.26-.15-.23-.41.07-.58l1.07-.62a1.13,1.13,0,0,1,1,0l3.25,1.88c.27.15.23.41-.07.58l-1.06.62A1.15,1.15,0,0,1,242.21,152.93Z"/><path class="cls-14" d="M193,130.43l-3.25-1.88c-.26-.15-.23-.41.07-.59L193,126.1a1.15,1.15,0,0,1,1,0l3.25,1.88c.26.15.22.41-.08.59L194,130.38A1.1,1.1,0,0,1,193,130.43Z"/><path class="cls-14" d="M198,133.32l-3.25-1.87c-.26-.15-.22-.42.08-.59L198,129a1.13,1.13,0,0,1,1,0l3.25,1.88c.26.15.23.41-.07.58L199,133.28A1.12,1.12,0,0,1,198,133.32Z"/><path class="cls-14" d="M203,136.22l-3.25-1.87c-.26-.16-.23-.42.08-.59L203,131.9a1.12,1.12,0,0,1,1,0l3.25,1.87c.26.15.23.42-.07.59L204,136.18A1.15,1.15,0,0,1,203,136.22Z"/><path class="cls-14" d="M208,139.12l-3.25-1.88c-.26-.15-.23-.41.07-.59l3.22-1.85a1.12,1.12,0,0,1,1-.05l3.25,1.88c.26.15.23.41-.07.59L209,139.08A1.15,1.15,0,0,1,208,139.12Z"/><path class="cls-14" d="M213,142l-3.25-1.88c-.26-.15-.23-.41.07-.59l3.22-1.86a1.15,1.15,0,0,1,1,0l3.25,1.88c.26.15.23.41-.08.58L214.05,142A1.1,1.1,0,0,1,213,142Z"/><path class="cls-14" d="M218.05,144.91,214.81,143c-.27-.15-.23-.42.07-.59l3.22-1.86a1.15,1.15,0,0,1,1,0l3.24,1.87c.27.15.23.42-.07.59l-3.22,1.86A1.15,1.15,0,0,1,218.05,144.91Z"/><path class="cls-14" d="M223.07,147.81l-3.25-1.88c-.26-.15-.23-.41.08-.58l3.22-1.86a1.1,1.1,0,0,1,1-.05l3.25,1.88c.26.15.23.41-.07.59l-3.22,1.86A1.15,1.15,0,0,1,223.07,147.81Z"/><path class="cls-14" d="M228.09,150.71l-3.25-1.88c-.26-.15-.23-.41.07-.59l3.22-1.86a1.15,1.15,0,0,1,1,0l3.25,1.88c.26.15.23.41-.07.59l-3.22,1.85A1.12,1.12,0,0,1,228.09,150.71Z"/><path class="cls-14" d="M233.11,153.6l-3.25-1.87c-.26-.15-.23-.42.07-.59l3.22-1.86a1.15,1.15,0,0,1,1,0l3.25,1.87c.26.16.23.42-.08.59l-3.21,1.86A1.15,1.15,0,0,1,233.11,153.6Z"/><path class="cls-14" d="M164.28,130.78l-9.57-5.52c-.26-.15-.23-.41.07-.59l3.22-1.86a1.15,1.15,0,0,1,1,0l9.57,5.53c.26.15.23.41-.07.58l-3.22,1.86A1.09,1.09,0,0,1,164.28,130.78Z"/><path class="cls-14" d="M225.92,166.38l-9.57-5.53c-.26-.15-.22-.41.08-.59l3.22-1.86a1.13,1.13,0,0,1,1,0l9.57,5.53c.26.15.23.41-.07.58l-3.22,1.86A1.12,1.12,0,0,1,225.92,166.38Z"/><path class="cls-14" d="M205.86,161.19l-3.25-1.88c-.26-.15-.23-.41.07-.58l3.84-2.22a1.13,1.13,0,0,1,1,0l3.25,1.87c.26.16.23.42-.07.59l-3.84,2.22A1.13,1.13,0,0,1,205.86,161.19Z"/><path class="cls-14" d="M169.42,140.15l-5.2-3c-.26-.15-.23-.41.07-.59l3.84-2.21a1.12,1.12,0,0,1,1,0l5.19,3c.26.15.23.41-.07.58l-3.84,2.22A1.13,1.13,0,0,1,169.42,140.15Z"/><path class="cls-14" d="M201,158.4l-5.19-3c-.27-.15-.23-.42.07-.59l3.83-2.21a1.12,1.12,0,0,1,1,0l5.2,3c.26.15.23.42-.08.59L202,158.36A1.15,1.15,0,0,1,201,158.4Z"/><path class="cls-14" d="M176.66,144.33l-5.2-3c-.26-.15-.23-.41.07-.59l3.84-2.21a1.12,1.12,0,0,1,1,0l5.19,3c.26.15.23.41-.07.58l-3.84,2.22A1.13,1.13,0,0,1,176.66,144.33Z"/><path class="cls-14" d="M176.42,138.51l22.59,13c.28.16.28.42,0,.59l-3.91,2.25a1.06,1.06,0,0,1-1,0l-22.59-13Z"/><path class="cls-14" d="M219.88,166.44l3.62,2.09c.21.12.19.34-.06.48l-1.57.91a.91.91,0,0,1-.83,0l-3.62-2.09c-.22-.12-.19-.34.06-.48l1.57-.9A.91.91,0,0,1,219.88,166.44Z"/><path class="cls-14" d="M214.82,163.52l3.62,2.09c.21.12.19.34-.06.48l-1.57.91a.91.91,0,0,1-.83,0l-3.62-2.09c-.22-.12-.19-.34.06-.48l1.57-.91A.94.94,0,0,1,214.82,163.52Z"/><path class="cls-14" d="M209.8,160.62l3.62,2.09c.22.13.19.34-.06.48l-1.57.91a.91.91,0,0,1-.83,0l-3.62-2.08c-.21-.13-.19-.34.06-.49l1.57-.9A.94.94,0,0,1,209.8,160.62Z"/><path class="cls-14" d="M217.59,161.92l3.62,2.09c.21.12.19.34-.06.48l-1.57.91a.91.91,0,0,1-.83,0l-3.62-2.09c-.22-.12-.19-.34.06-.48l1.57-.9A.91.91,0,0,1,217.59,161.92Z"/><path class="cls-4" d="M223,90.59l-3.11-1.8a1.25,1.25,0,0,1-.53-1h0c0-.39.22-.57.51-.4L223,89.18a1.33,1.33,0,0,1,.53,1h0C223.5,90.57,223.27,90.75,223,90.59Z"/><path class="cls-4" d="M230.38,94.86l-4.58-2.65a1.27,1.27,0,0,1-.54-1h0c0-.39.23-.56.52-.4l4.58,2.65a1.27,1.27,0,0,1,.53,1h0C230.9,94.85,230.67,95,230.38,94.86Z"/><path class="cls-4" d="M221.44,107.16l-3.11-1.8a1.24,1.24,0,0,1-.53-1h0c0-.39.22-.57.51-.4l3.11,1.8a1.3,1.3,0,0,1,.53,1h0C222,107.14,221.73,107.32,221.44,107.16Z"/><path class="cls-4" d="M228,111l-4.59-2.65a1.3,1.3,0,0,1-.53-1h0c0-.39.22-.57.51-.4l4.58,2.65a1.27,1.27,0,0,1,.54,1h0C228.55,111,228.33,111.13,228,111Z"/><path class="cls-4" d="M214.46,88.58l-1.94-1.12a1.31,1.31,0,0,1-.54-1h0c0-.38.22-.56.51-.4l1.94,1.12a1.31,1.31,0,0,1,.54,1h0C215,88.56,214.75,88.74,214.46,88.58Z"/><path class="cls-4" d="M221.09,95.31l-5.94-3.42a1.33,1.33,0,0,1-.53-1h0c0-.39.22-.57.51-.4l5.93,3.42a1.31,1.31,0,0,1,.54,1h0C221.6,95.3,221.37,95.48,221.09,95.31Z"/><path class="cls-4" d="M217.19,98.89l-1.94-1.13a1.24,1.24,0,0,1-.53-1h0c0-.39.22-.56.51-.4l1.94,1.12a1.27,1.27,0,0,1,.53,1h0C217.71,98.87,217.48,99.05,217.19,98.89Z"/><path class="cls-4" d="M230.33,118.11l-5.19-3a1.3,1.3,0,0,1-.53-1h0c0-.38.22-.56.51-.4l5.19,3a1.3,1.3,0,0,1,.53,1h0C230.85,118.1,230.62,118.28,230.33,118.11Z"/><path class="cls-4" d="M216.59,104.36l-1.24-.72a1.31,1.31,0,0,1-.54-1h0c0-.39.22-.57.51-.4l1.25.72a1.24,1.24,0,0,1,.53,1h0C217.11,104.35,216.88,104.53,216.59,104.36Z"/><path class="cls-4" d="M217,110.41l-1.55-.9a1.24,1.24,0,0,1-.53-1h0c0-.38.22-.56.51-.4l1.55.9a1.3,1.3,0,0,1,.53,1h0C217.5,110.4,217.28,110.57,217,110.41Z"/><path class="cls-4" d="M223,113.88l-4.08-2.35a1.31,1.31,0,0,1-.54-1h0c0-.39.23-.57.52-.4l4.08,2.35a1.33,1.33,0,0,1,.53,1h0C223.53,113.87,223.3,114.05,223,113.88Z"/><path class="cls-4" d="M218.42,114.15l-2.93-1.7a1.27,1.27,0,0,1-.54-1h0c0-.39.23-.57.52-.4l2.93,1.69a1.27,1.27,0,0,1,.53,1h0C218.94,114.13,218.71,114.31,218.42,114.15Z"/><path class="cls-4" d="M234.78,120.69l-1.88-1.08a1.31,1.31,0,0,1-.54-1h0c0-.38.23-.56.51-.4l1.89,1.09a1.3,1.3,0,0,1,.53,1h0C235.3,120.68,235.07,120.86,234.78,120.69Z"/><path class="cls-4" d="M224.41,103.05l-5.18-3a1.29,1.29,0,0,1-.54-1h0c0-.39.23-.57.51-.4l5.19,3a1.27,1.27,0,0,1,.53,1h0C224.93,103,224.7,103.22,224.41,103.05Z"/><path class="cls-4" d="M224.24,100l-9-5.21a1.3,1.3,0,0,1-.53-1h0c0-.38.22-.56.51-.4l9,5.22a1.3,1.3,0,0,1,.53,1h0C224.76,100,224.53,100.21,224.24,100Z"/><path class="cls-4" d="M220.48,103.7l-5.18-3a1.27,1.27,0,0,1-.54-1h0c0-.39.23-.57.51-.4l5.19,3a1.27,1.27,0,0,1,.53,1h0C221,103.68,220.77,103.86,220.48,103.7Z"/><path class="cls-4" d="M228.35,105.32l-1.89-1.08a1.27,1.27,0,0,1-.53-1h0c0-.38.22-.56.51-.39l1.88,1.08a1.31,1.31,0,0,1,.54,1h0C228.86,105.31,228.63,105.49,228.35,105.32Z"/><path class="cls-4" d="M244.36,102.93,233.2,96.49a1.27,1.27,0,0,1-.53-1h0c0-.39.22-.57.51-.4l11.15,6.44a1.27,1.27,0,0,1,.54,1h0C244.87,102.92,244.65,103.1,244.36,102.93Z"/><path class="cls-4" d="M221.63,110.18l-6.24-3.6a1.3,1.3,0,0,1-.53-1h0c0-.38.22-.56.51-.39l6.23,3.59a1.31,1.31,0,0,1,.54,1h0C222.14,110.16,221.91,110.34,221.63,110.18Z"/><path class="cls-4" d="M217.05,87.16l-4.58-2.64a1.31,1.31,0,0,1-.54-1h0c0-.38.23-.56.52-.39L217,85.76a1.3,1.3,0,0,1,.53,1h0C217.57,87.15,217.34,87.33,217.05,87.16Z"/><path class="cls-4" d="M218.25,117l-5.31-3.07a1.3,1.3,0,0,1-.53-1h0c0-.39.22-.56.51-.4l5.31,3.07a1.24,1.24,0,0,1,.53,1h0C218.77,117,218.54,117.12,218.25,117Z"/><path class="cls-4" d="M82.56,121.57l27.33-15.91c5.42-3.13,10.52-3.63,14.38-1.4s6,6.9,6,13.15v2l-.6.39v-2.39c0-6-2-10.51-5.68-12.63s-8.56-1.62-13.78,1.4L82.86,122.09a.3.3,0,0,1-.3-.52Z"/><path class="cls-4" d="M167.8,102.61V41c0-12.33,8.69-27.38,19.37-33.54,5.23-3,10.16-3.5,13.89-1.35s5.78,6.66,5.78,12.7v4.3l-.6.6v-4.9c0-5.81-2-10.14-5.48-12.18S192.51,5.08,187.47,8C177,14.06,168.41,28.87,168.41,41v61.6c0,10.22-6,22.32-14.17,29.6v-.81C162.07,124.2,167.8,112.51,167.8,102.61Z"/><path class="cls-14" d="M206.84,25h0a24.18,24.18,0,0,1,12.34-6c7.63-1.17,10.78,7.75,10.78,7.75a49.62,49.62,0,0,1,.85,7.38c0,2.74-.23,12.7-.23,12.7L206.4,32.86h0a.31.31,0,0,1-.16-.27V25.52C206.44,25.32,206.64,25.2,206.84,25Z"/><path class="cls-4" d="M224,19.33,201.06,6.12l.09.33c-3.53-2.28-8.87-2.53-16,2.71C171,19.56,169.25,34,168.53,36.75s-.43,19.91-.43,19.91,0,41.46-.09,46.28-1.45,10.24-4.16,16.08S154.18,132,154.18,132v8.44c1.11,9.13,5,11.25,10.75,11.77,4.66.42,9.62-2.94,13.58-6.6l-.24.25v8.44c1.11,9.12,5,11.25,10.76,11.77s12-4.76,16.23-9.24,7.79-11.3,9.77-17.46,1.33-14.12,1.33-14.12,0-45.32.09-54.26.33-7.38,3.26-16.36,10.71-15.27,10.71-15.27l18.64-5.55Z"/><path class="cls-19" d="M184.08,165.26c-.31-.43-4.4-3.16-5.44-8a37.48,37.48,0,0,1-.52-6.76s0-2.27.07-4.33l.14-.12v-.8l-.11.09c0-.46,0-.9.05-1.27.12-2.14-1.46-6.71-1.46-6.71s-2.25-6.12-8.94-6.36c-5.94-.21-12.19,4.06-13.52,5v-2.76l-.28.18,0-1.12.14-.12v-.81l-.12.1c0-.47,0-.9.06-1.27.12-2.15-1.47-6.72-1.47-6.72s-2.24-6.12-8.93-6.36c-5.94-.21-12.2,4.07-13.53,5v-2.77l-.6.39v4.84c0,5.86,2,10.27,5.5,12.46l0,0,.12.07.1.06.07,0L160,151.4a0,0,0,0,1,0,0Z"/><path class="cls-4" d="M148.37,118.12s-.19-.1-.51-.23l-.3-.15-23.29-13.48a12.47,12.47,0,0,0-9.45-.35c-5.18,1.89-32.3,18.16-32.3,18.16l24.23,14h.07l24,13.85s13.6-8.43,23-13.86l.6-.35a60.35,60.35,0,0,1,7.86-4.11,14.86,14.86,0,0,1,10.88.91Z"/><path class="cls-4" d="M173.18,132.48l.28.16Z"/><path class="cls-14" d="M230.93,38.86h0a24.22,24.22,0,0,1,12.34-6c7.63-1.17,10.78,7.75,10.78,7.75a48.93,48.93,0,0,1,.86,7.38c0,2.74-.23,12.7-.23,12.7L230.5,46.72h0a.29.29,0,0,1-.17-.26V39.38C230.53,39.18,230.73,39.06,230.93,38.86Z"/><path class="cls-15" d="M188.79,166.36a17.55,17.55,0,0,0,8.67-2.66c10.61-6.12,19.23-21.06,19.23-33.3V68.8c0-12.14,8.55-26.95,19.07-33,5-2.91,9.75-3.39,13.28-1.35s5.48,6.37,5.48,12.18V60.38a.3.3,0,0,0,.3.3.29.29,0,0,0,.3-.3V46.61c0-6-2.05-10.55-5.78-12.7s-8.65-1.67-13.88,1.35c-10.68,6.16-19.37,21.21-19.37,33.54v61.6c0,12-8.49,26.76-18.93,32.78-5,2.89-9.68,3.36-13.18,1.34s-5.44-6.32-5.44-12.09V145.2c0-6.25-2.13-10.92-6-13.15s-9-1.73-14.38,1.4l-27.34,15.91a.31.31,0,0,0-.11.41.29.29,0,0,0,.41.11L158.48,134c5.22-3,10.11-3.51,13.78-1.4s5.68,6.6,5.68,12.63v7.23c0,6,2,10.47,5.73,12.61A10.15,10.15,0,0,0,188.79,166.36Z"/><path class="cls-18" d="M190.68,83.9l-4-2.33a1.64,1.64,0,0,1-.69-1.31h0c0-.5.28-.73.66-.52l4,2.34a1.62,1.62,0,0,1,.69,1.3h0C191.35,83.88,191.06,84.12,190.68,83.9Z"/><path class="cls-18" d="M199.26,88.85l-6-3.44a1.67,1.67,0,0,1-.69-1.3h0c0-.5.29-.74.66-.52l6,3.44a1.63,1.63,0,0,1,.69,1.3h0C199.93,88.84,199.64,89.07,199.26,88.85Z"/><path class="cls-18" d="M190.22,68.5,182.51,64a1.62,1.62,0,0,1-.69-1.3h0c0-.5.28-.74.66-.52l7.71,4.45a1.67,1.67,0,0,1,.7,1.31h0C190.89,68.48,190.6,68.71,190.22,68.5Z"/><path class="cls-18" d="M185.16,73.14l-2.53-1.46a1.67,1.67,0,0,1-.69-1.3h0c0-.5.29-.74.66-.52l2.53,1.46a1.69,1.69,0,0,1,.69,1.3h0C185.83,73.13,185.53,73.36,185.16,73.14Z"/><path class="cls-18" d="M184.38,80.26l-1.62-.94a1.65,1.65,0,0,1-.7-1.3h0c0-.5.29-.74.67-.52l1.62.94a1.67,1.67,0,0,1,.69,1.3h0C185.05,80.24,184.75,80.48,184.38,80.26Z"/><path class="cls-18" d="M194.55,78.56l-6.74-3.89a1.67,1.67,0,0,1-.7-1.3h0c0-.51.29-.74.67-.52l6.74,3.89a1.69,1.69,0,0,1,.69,1.3h0C195.22,78.55,194.92,78.78,194.55,78.56Z"/><path class="cls-18" d="M194.32,74.65l-11.75-6.79a1.67,1.67,0,0,1-.69-1.3h0c0-.5.29-.74.66-.52l11.75,6.79a1.65,1.65,0,0,1,.7,1.3h0C195,74.63,194.7,74.87,194.32,74.65Z"/><path class="cls-18" d="M189.44,79.4l-6.74-3.9a1.65,1.65,0,0,1-.7-1.3h0c0-.5.29-.74.67-.52l6.74,3.89a1.69,1.69,0,0,1,.69,1.31h0C190.11,79.38,189.81,79.61,189.44,79.4Z"/><path class="cls-18" d="M199.66,81.52l-2.45-1.42a1.67,1.67,0,0,1-.69-1.3h0c0-.51.29-.74.66-.52l2.45,1.41a1.67,1.67,0,0,1,.7,1.31h0C200.33,81.5,200,81.73,199.66,81.52Z"/><path class="cls-18" d="M192.68,62.35l-4-2.33a1.69,1.69,0,0,1-.69-1.31h0c0-.5.29-.73.66-.52l4,2.34a1.65,1.65,0,0,1,.7,1.3h0C193.35,62.33,193.06,62.57,192.68,62.35Z"/><path class="cls-18" d="M202.31,67.91l-6-3.44a1.64,1.64,0,0,1-.69-1.31h0c0-.5.29-.73.66-.52l6,3.44a1.69,1.69,0,0,1,.69,1.31h0C203,67.89,202.68,68.12,202.31,67.91Z"/><path class="cls-18" d="M190.68,83.9l-4-2.33a1.64,1.64,0,0,1-.69-1.31h0c0-.5.28-.73.66-.52l4,2.34a1.62,1.62,0,0,1,.69,1.3h0C191.35,83.88,191.06,84.12,190.68,83.9Z"/><path class="cls-18" d="M199.26,88.85l-6-3.44a1.67,1.67,0,0,1-.69-1.3h0c0-.5.29-.74.66-.52l6,3.44a1.63,1.63,0,0,1,.69,1.3h0C199.93,88.84,199.64,89.07,199.26,88.85Z"/><path class="cls-18" d="M181.6,59.74l-2.52-1.46a1.67,1.67,0,0,1-.7-1.3h0c0-.51.29-.74.67-.52l2.52,1.45a1.67,1.67,0,0,1,.7,1.31h0C182.27,59.72,182,60,181.6,59.74Z"/><path class="cls-18" d="M190.22,68.5,182.51,64a1.62,1.62,0,0,1-.69-1.3h0c0-.5.28-.74.66-.52l7.71,4.45a1.67,1.67,0,0,1,.7,1.31h0C190.89,68.48,190.6,68.71,190.22,68.5Z"/><path class="cls-18" d="M185.16,73.14l-2.53-1.46a1.67,1.67,0,0,1-.69-1.3h0c0-.5.29-.74.66-.52l2.53,1.46a1.69,1.69,0,0,1,.69,1.3h0C185.83,73.13,185.53,73.36,185.16,73.14Z"/><path class="cls-18" d="M202.24,98.14l-6.74-3.89a1.67,1.67,0,0,1-.7-1.3h0c0-.51.29-.74.67-.52l6.74,3.89a1.62,1.62,0,0,1,.69,1.3h0C202.91,98.13,202.62,98.36,202.24,98.14Z"/><path class="cls-18" d="M184.38,80.26l-1.62-.94a1.65,1.65,0,0,1-.7-1.3h0c0-.5.29-.74.67-.52l1.62.94a1.67,1.67,0,0,1,.69,1.3h0C185.05,80.24,184.75,80.48,184.38,80.26Z"/><path class="cls-18" d="M184.89,88.13l-2-1.17a1.67,1.67,0,0,1-.69-1.3h0c0-.5.29-.74.66-.52l2,1.16a1.67,1.67,0,0,1,.7,1.31h0C185.57,88.11,185.27,88.34,184.89,88.13Z"/><path class="cls-18" d="M192.72,92.65l-5.3-3.07a1.65,1.65,0,0,1-.7-1.3h0c0-.5.29-.74.67-.52l5.3,3.06a1.67,1.67,0,0,1,.7,1.31h0C193.39,92.63,193.1,92.86,192.72,92.65Z"/><path class="cls-18" d="M186.76,93l-3.82-2.21a1.67,1.67,0,0,1-.69-1.3h0c0-.5.29-.74.66-.52l3.82,2.2a1.69,1.69,0,0,1,.69,1.31h0C187.43,93,187.13,93.2,186.76,93Z"/><path class="cls-18" d="M194.55,78.56l-6.74-3.89a1.67,1.67,0,0,1-.7-1.3h0c0-.51.29-.74.67-.52l6.74,3.89a1.69,1.69,0,0,1,.69,1.3h0C195.22,78.55,194.92,78.78,194.55,78.56Z"/><path class="cls-18" d="M194.32,74.65l-11.75-6.79a1.67,1.67,0,0,1-.69-1.3h0c0-.5.29-.74.66-.52l11.75,6.79a1.65,1.65,0,0,1,.7,1.3h0C195,74.63,194.7,74.87,194.32,74.65Z"/><path class="cls-18" d="M189.44,79.4l-6.74-3.9a1.65,1.65,0,0,1-.7-1.3h0c0-.5.29-.74.67-.52l6.74,3.89a1.69,1.69,0,0,1,.69,1.31h0C190.11,79.38,189.81,79.61,189.44,79.4Z"/><path class="cls-18" d="M199.66,81.52l-2.45-1.42a1.67,1.67,0,0,1-.69-1.3h0c0-.51.29-.74.66-.52l2.45,1.41a1.67,1.67,0,0,1,.7,1.31h0C200.33,81.5,200,81.73,199.66,81.52Z"/><path class="cls-18" d="M190.92,87.82l-8.1-4.68a1.62,1.62,0,0,1-.69-1.3h0c0-.5.28-.74.66-.52l8.1,4.68a1.67,1.67,0,0,1,.7,1.3h0C191.6,87.81,191.3,88,190.92,87.82Z"/><path class="cls-18" d="M185,57.9,179,54.46a1.67,1.67,0,0,1-.7-1.3h0c0-.51.29-.74.67-.52l5.95,3.44a1.65,1.65,0,0,1,.7,1.3h0C185.65,57.88,185.35,58.12,185,57.9Z"/><path class="cls-18" d="M186.54,96.64l-6.91-4a1.69,1.69,0,0,1-.69-1.31h0c0-.5.29-.73.67-.51l6.9,4a1.69,1.69,0,0,1,.69,1.3h0C187.21,96.63,186.91,96.86,186.54,96.64Z"/><path class="cls-18" d="M189.73,120.15l-4-2.33a1.64,1.64,0,0,1-.69-1.31h0c0-.5.28-.73.66-.52l4,2.34a1.62,1.62,0,0,1,.69,1.3h0C190.4,120.13,190.11,120.37,189.73,120.15Z"/><path class="cls-18" d="M198.31,125.1l-6-3.44a1.67,1.67,0,0,1-.69-1.3h0c0-.5.29-.74.66-.52l6,3.44a1.63,1.63,0,0,1,.69,1.3h0C199,125.09,198.69,125.32,198.31,125.1Z"/><path class="cls-18" d="M189.27,104.75l-7.71-4.45a1.65,1.65,0,0,1-.69-1.31h0c0-.5.29-.73.66-.52l7.71,4.46a1.65,1.65,0,0,1,.7,1.3h0C189.94,104.73,189.65,105,189.27,104.75Z"/><path class="cls-18" d="M184.21,109.39l-2.53-1.46a1.67,1.67,0,0,1-.69-1.3h0c0-.5.29-.73.66-.52l2.53,1.46a1.69,1.69,0,0,1,.69,1.3h0C184.88,109.38,184.58,109.61,184.21,109.39Z"/><path class="cls-18" d="M183.43,116.51l-1.62-.94a1.65,1.65,0,0,1-.7-1.3h0c0-.5.29-.73.67-.52l1.62.94a1.67,1.67,0,0,1,.69,1.3h0C184.1,116.49,183.8,116.73,183.43,116.51Z"/><path class="cls-18" d="M193.6,114.81l-6.74-3.89a1.67,1.67,0,0,1-.7-1.3h0c0-.51.29-.74.67-.52l6.74,3.89a1.69,1.69,0,0,1,.69,1.3h0C194.27,114.8,194,115,193.6,114.81Z"/><path class="cls-18" d="M193.37,110.9l-11.75-6.79a1.67,1.67,0,0,1-.69-1.3h0c0-.5.29-.73.66-.52l11.75,6.79a1.65,1.65,0,0,1,.7,1.3h0C194,110.88,193.75,111.12,193.37,110.9Z"/><path class="cls-18" d="M188.49,115.65l-6.74-3.9a1.65,1.65,0,0,1-.7-1.3h0c0-.5.29-.73.67-.52l6.74,3.89a1.69,1.69,0,0,1,.69,1.31h0C189.16,115.63,188.86,115.86,188.49,115.65Z"/><path class="cls-18" d="M198.71,117.77l-2.45-1.42a1.67,1.67,0,0,1-.69-1.3h0c0-.5.29-.74.66-.52l2.45,1.41a1.67,1.67,0,0,1,.7,1.31h0C199.38,117.75,199.09,118,198.71,117.77Z"/><polygon class="cls-20" points="258.59 184.2 266.08 179.88 273.56 184.2 266.08 188.53 258.59 184.2"/><polygon class="cls-21" points="274.48 174.91 281.96 170.59 289.45 174.91 281.96 179.23 274.48 174.91"/><polygon class="cls-22" points="290.32 165.84 297.8 161.51 305.29 165.84 297.8 170.16 290.32 165.84"/><polygon class="cls-23" points="281.96 174.91 281.96 151.86 274.48 147.54 274.48 170.59 281.96 174.91"/><polygon class="cls-24" points="281.96 151.86 289.45 147.54 289.45 170.59 281.96 174.91 281.96 151.86"/><polygon class="cls-23" points="281.96 174.91 281.96 151.86 274.48 147.54 274.48 170.59 281.96 174.91"/><polygon class="cls-25" points="266.08 184.2 266.08 171.24 258.59 166.92 258.59 179.88 266.08 184.2"/><polygon class="cls-26" points="266.08 171.24 273.56 166.92 273.56 179.88 266.08 184.2 266.08 171.24"/><polygon class="cls-27" points="258.59 166.92 266.08 162.6 273.56 166.92 266.08 171.24 258.59 166.92"/><polygon class="cls-28" points="297.8 165.84 297.8 134.15 290.32 129.83 290.32 161.51 297.8 165.84"/><polygon class="cls-29" points="297.8 134.15 305.29 129.83 305.29 161.51 297.8 165.84 297.8 134.15"/><polygon class="cls-30" points="290.32 129.83 297.8 125.5 305.29 129.83 297.8 134.15 290.32 129.83"/><polygon class="cls-31" points="274.48 147.54 281.96 143.22 289.45 147.54 281.96 151.86 274.48 147.54"/><path class="cls-18" d="M112.79,161.29s-2.31-1.16-3.73.57-3.44,5.83-3.51,8.6,2.19,2.58,3.53,1.93,5.25-6.33,5.49-7.45a3.85,3.85,0,0,0-.65-2.9C113.54,161.74,112.79,161.29,112.79,161.29Z"/><path class="cls-4" d="M113.3,160.74l.1,2.39a1.36,1.36,0,0,1-.67,1.25,2.71,2.71,0,0,1-1.78.27c-1.74-.28-1.9-.77-2-3.17S113.3,160.74,113.3,160.74Z"/><path class="cls-18" d="M104.34,156.69s-2.31-1.16-3.73.57-3.45,5.83-3.51,8.6,2.19,2.58,3.53,1.92,5.25-6.33,5.48-7.44a3.84,3.84,0,0,0-.65-2.91C105.08,157.14,104.34,156.69,104.34,156.69Z"/><path class="cls-4" d="M104.84,156.13l.11,2.4a1.36,1.36,0,0,1-.68,1.24,2.63,2.63,0,0,1-1.78.28c-1.74-.28-1.9-.78-2-3.17S104.84,156.13,104.84,156.13Z"/><path class="cls-14" d="M125.46,112.19c-.69-11.12-12,1.64-12,1.64l-7.78,7.62-7,7.7a6.94,6.94,0,0,0-1.74,5.54l2.84,21.58a2.12,2.12,0,0,0,2.12,1.84,7.08,7.08,0,0,0,1-.09,2.63,2.63,0,0,0,2.34-2.8L104.72,135l14.71-8.86S126.14,123.32,125.46,112.19Z"/><path class="cls-14" d="M133.91,116.43c-.68-11.13-12,1.64-12,1.64l-7.78,7.62-7,7.7a6.9,6.9,0,0,0-1.74,5.54l2.83,21.58a2.13,2.13,0,0,0,2.13,1.84,7.19,7.19,0,0,0,1-.09,2.63,2.63,0,0,0,2.34-2.8l-.52-20.18,14.71-8.87S134.6,127.56,133.91,116.43Z"/><path class="cls-18" d="M127.19,80.72c8.61,3.57,8.44,8.66,8.44,8.66s-1.69,18.67-1.11,31.14c.24,5.22-27.7,5.62-23.53-8.29,4.91-16.4,3.07-29.68,5.37-31.68S125,79.79,127.19,80.72Z"/><path class="cls-32" d="M130,85.23c-.45,1.75-2.74,2.67-5.12,2.06s-3.94-2.53-3.49-4.28,2.75-2.67,5.12-2.05S130.41,83.48,130,85.23Z"/><path class="cls-17" d="M126.3,87.89a6.07,6.07,0,0,1-1.56-.2,5.68,5.68,0,0,1-3-1.85,3.28,3.28,0,0,1-.77-2.93c.51-2,3-3,5.63-2.35a5.69,5.69,0,0,1,3,1.85,3.29,3.29,0,0,1,.76,2.92h0C130,86.9,128.27,87.89,126.3,87.89ZM125,81.18c-1.6,0-2.94.74-3.25,1.94a2.49,2.49,0,0,0,.61,2.2,4.86,4.86,0,0,0,2.58,1.57c2.15.56,4.23-.23,4.62-1.76h0a2.48,2.48,0,0,0-.6-2.2,5,5,0,0,0-2.59-1.58A5.52,5.52,0,0,0,125,81.18Z"/><path class="cls-32" d="M123.73,80.33a19.91,19.91,0,0,1-.07,3.07c0,.86,3,1.66,3.73.89s.47-1.59.66-4.51S123.73,80.33,123.73,80.33Z"/><path class="cls-33" d="M128.05,79.78a6.06,6.06,0,0,1-4.39,3.75l0-2.46Z"/><circle class="cls-32" cx="123.94" cy="74.56" r="6.63" transform="translate(-2.79 144.27) rotate(-59.84)"/><path class="cls-33" d="M125.46,74.8a20.29,20.29,0,0,1-6.18,1.58c-2.53,0-2-2.1-2-2.1l7.51-1.08Z"/><path class="cls-34" d="M118.53,75.21a11.79,11.79,0,0,1,6-.78,2.9,2.9,0,0,1,1.68,1,1,1,0,0,0,.52.37c.49.11,1.3-1.94,2.26-2s1.61.63.82,1.9-.53,2.67-.16,2.88,4.21-2.75.81-9.48-12-3.1-13.36-1.74c0,0-1.41,1.24-2.56.14C114.51,67.51,113.22,77.16,118.53,75.21Z"/><path class="cls-32" d="M130.8,103v5a2,2,0,0,1-.67,1.52L119.76,119l1.18,1.8,13.69-9.93a2.75,2.75,0,0,0,1.13-2l.93-8.8Z"/><path class="cls-18" d="M134.9,86.86s3.15,4.73,4.32,17.18c0,0-5.37,1.73-8.42.75S134.9,86.86,134.9,86.86Z"/><path class="cls-15" d="M130.22,92.84a87.9,87.9,0,0,0-1.3,9.68,2,2,0,0,0,1.3,1.91h0Z"/><path class="cls-18" d="M127.54,125.6l-2.3-.3-14.78-8.54a2,2,0,0,0-1.85.08l-10.48,6-1.39-.18v1.38h0a.55.55,0,0,0,.32.48l16.76,9.68a2.06,2.06,0,0,0,1.85-.08l11.41-6.58a.78.78,0,0,0,.46-.62h0Z"/><path class="cls-15" d="M116.42,120.2l-1-.6H103.82l-5.69,3.28-1.39-.18v1.38h0a.55.55,0,0,0,.32.48l16.76,9.68a1.73,1.73,0,0,0,1,.18Z"/><path class="cls-18" d="M97.36,122.78l-.62-.08v1.38h0a.55.55,0,0,0,.32.48l.3.18Z"/><path class="cls-17" d="M114,134.32a2.15,2.15,0,0,0,1.57-.1v-2.34H114Z"/><path class="cls-17" d="M113.82,132.86l-16.76-9.67c-.47-.28-.41-.76.13-1.07l11.42-6.59a2.05,2.05,0,0,1,1.85-.07l16.76,9.67c.47.28.41.75-.14,1.07l-11.41,6.59A2.05,2.05,0,0,1,113.82,132.86Z"/><path class="cls-4" d="M113.54,131.4,99.6,123.35c-.39-.23-.34-.62.11-.89l6.12-3.44a1.71,1.71,0,0,1,1.54-.06L121.3,127c.4.22.35.62-.11.88l-6.11,3.44A1.75,1.75,0,0,1,113.54,131.4Z"/><path class="cls-32" d="M109.25,115.21l-.17,1.16a8.47,8.47,0,0,0,.08,3l.2,1a1.43,1.43,0,0,0,1.15,1.13h0a.79.79,0,0,0,.93-.69l.28-2.47s.63.83.93.83-.34-2.48-1-3.88S109.25,115.21,109.25,115.21Z"/><path class="cls-32" d="M114.94,96.84l-1.8,3.56a6.89,6.89,0,0,0-.74,2.7l-.78,12.17-2.37-.06-1.07-13.67a5.33,5.33,0,0,1,.06-1.26l1.23-6.93Z"/><path class="cls-14" d="M113.25,133.79l-1.4-1.83L97.07,123.4a2.07,2.07,0,0,1-.86-1.64l0-12.1-.85-1.11.8-.46h0a.53.53,0,0,1,.58,0l16.74,9.7a2.05,2.05,0,0,1,.86,1.64v13.18a.75.75,0,0,1-.32.7h0Z"/><path class="cls-15" d="M103,126.85l-1-.6-5.76-10v-6.58l-.85-1.11.8-.46h0a.53.53,0,0,1,.58,0l16.74,9.7a1.72,1.72,0,0,1,.63.74Z"/><path class="cls-18" d="M95.75,109l-.37-.49.8-.46h0a.53.53,0,0,1,.58,0l.29.18Z"/><path class="cls-16" d="M113.66,117.93a2.15,2.15,0,0,1,.7,1.41l-1.64.94-.79-1.36Z"/><path class="cls-18" d="M112.71,118.28,96,108.59c-.48-.28-.86,0-.86.64v13.18a2,2,0,0,0,.85,1.64l16.75,9.7c.47.27.86,0,.86-.65V119.92A2.07,2.07,0,0,0,112.71,118.28Z"/><path class="cls-32" d="M120.94,120.84l-.27.55a3.7,3.7,0,0,1-1.4,1.56l-1.66,1a1.65,1.65,0,0,1-1.7,0l-.06,0a1,1,0,0,1-.14-1.54l1.74-1.79s-1,.75-1.25.45,1-1.3,1.83-1.33a3.5,3.5,0,0,0,1.73-.73Z"/><path class="cls-18" d="M116.53,80.52s-6.37,6.94-8.94,13.3a13,13,0,0,0,7.51,5.47C120.44,100.83,116.53,80.52,116.53,80.52Z"/><path class="cls-15" d="M113.9,98.88l1-10-2.44,9.35C112.94,98.47,113.4,98.68,113.9,98.88Z"/><path class="cls-17" d="M121.31,79.13l-1.72-.48a4.16,4.16,0,0,0,2,1.62c1.2.33,1.38-.68,1.38-.68Z"/><path class="cls-17" d="M130.45,76.38a.95.95,0,1,1-.95-.95A1,1,0,0,1,130.45,76.38Z"/><path class="cls-35" d="M272.82,80,270,74.19l5.84-2.88,2.87,5.85Zm-1.13-5.25,1.73,3.51,3.5-1.73-1.72-3.5Z"/><path class="cls-4" d="M75.52,176.24c-6.38-3.69-16.72-3.69-23.1,0s-6.38,9.66,0,13.34,16.72,3.69,23.1,0S81.9,179.92,75.52,176.24ZM69.28,186a11.76,11.76,0,0,1-10.62,0c-2.93-1.69-2.93-4.44,0-6.13a11.76,11.76,0,0,1,10.62,0C72.21,181.53,72.21,184.28,69.28,186Z"/><path class="cls-36" d="M50,174.05l5.82.09a6.32,6.32,0,0,1,1.85-1.54,14.08,14.08,0,0,1,11.73-.44l3.46-3.25,5.33.08c-.26-.17-.53-.34-.82-.51-7.4-4.27-19.42-4.27-26.83,0a14.27,14.27,0,0,0-3.33,2.6Z"/><polygon class="cls-37" points="78.2 160.53 78.2 168.99 72.87 168.91 72.87 160.44 78.2 160.53"/><polygon class="cls-38" points="69.41 163.7 69.41 172.16 72.87 168.91 72.87 160.44 69.41 163.7"/><path class="cls-39" d="M55.83,165.68v8.46l7.67-6.24,5.91,4.26V163.7L64,161.06s-7.49,2.3-7.88,2.39S55.83,165.68,55.83,165.68Z"/><polygon class="cls-40" points="50.01 165.59 50.01 174.05 55.84 174.14 55.84 165.68 50.01 165.59"/><polygon class="cls-41" points="47.22 162.62 47.22 171.08 50.01 174.05 50.01 165.59 47.22 162.62"/><path class="cls-42" d="M50,165.59l5.82.09a6.34,6.34,0,0,1,1.85-1.55,14.07,14.07,0,0,1,11.73-.43l3.46-3.25,5.33.08c-.26-.17-.53-.34-.82-.51-7.4-4.28-19.42-4.28-26.83,0a14.27,14.27,0,0,0-3.33,2.6Z"/><path class="cls-18" d="M71.16,164.74v7.78l5-1.21s-.3-4.55-.4-4.67S71.16,164.74,71.16,164.74Z"/><path class="cls-14" d="M67.35,172.52V181l.54.59,3.56-2.06s-.55-6.46-.62-6.58A33.54,33.54,0,0,0,67.35,172.52Z"/><path class="cls-15" d="M74.21,170.34l-3,2.87c2.55,2,2.24,4.84-.9,6.65A10.67,10.67,0,0,1,67.35,181l3.15,3.36L67.71,187a25.55,25.55,0,0,0,9.68-3c6.37-3.68,7.25-9.32,2.67-13.55Z"/><polygon class="cls-15" points="67.71 178.51 67.71 186.97 74.62 184.3 82.94 176.36 82.91 167.38 74.11 174.35 67.71 178.51"/><path class="cls-4" d="M74.21,161.88l-3,2.86c2.55,2,2.24,4.85-.9,6.66a10.67,10.67,0,0,1-2.91,1.12l3.15,3.36-2.79,2.63a25.39,25.39,0,0,0,9.68-3c6.37-3.67,7.25-9.31,2.67-13.54Z"/><path class="cls-43" d="M67.68,184.3l-2.77-3a13.25,13.25,0,0,1-7.23-1.48c-2-1.18-2.89-2.78-2.53-4.32l-6.62-.1L46,172.73c-2.23,3.82-.71,8.2,4.56,11.25a27.7,27.7,0,0,0,14.08,3.19Z"/><polygon class="cls-44" points="64.63 178.71 64.63 187.18 45 176.3 45 167.83 47.87 168.99 64.63 178.71"/><polygon class="cls-45" points="67.68 175.84 67.68 184.3 64.63 187.18 64.63 178.71 67.68 175.84"/><path class="cls-18" d="M67.68,175.84l-2.77-3a13.34,13.34,0,0,1-7.23-1.48c-2-1.18-2.89-2.79-2.53-4.32l-6.62-.1L46,164.27c-2.23,3.81-.71,8.2,4.56,11.24a27.7,27.7,0,0,0,14.08,3.2Z"/><path class="cls-46" d="M97.76,54.46A4.23,4.23,0,1,1,102,50.23,4.23,4.23,0,0,1,97.76,54.46Zm0-7.16a2.93,2.93,0,1,0,2.93,2.93A2.93,2.93,0,0,0,97.76,47.3Z"/><path class="cls-47" d="M13.4,171.53a3.07,3.07,0,1,1-3.07-3.07A3.08,3.08,0,0,1,13.4,171.53Z"/><path class="cls-48" d="M244.5,10.88a3.66,3.66,0,1,1-3.66-3.66A3.66,3.66,0,0,1,244.5,10.88Z"/><path class="cls-49" d="M224.71,48.74,207.3,38.69a.9.9,0,0,0-.9-.07h0l-1.69,1,1.18.44V52.69a3.36,3.36,0,0,0,1.4,2.68L223.94,65v1.48l1.71-1h0a1.24,1.24,0,0,0,.47-1.12V51.42A3.38,3.38,0,0,0,224.71,48.74Z"/><path class="cls-50" d="M223,66.41l-17.41-10a3.34,3.34,0,0,1-1.4-2.67V40.74c0-1,.63-1.5,1.4-1.06l17.41,10a3.38,3.38,0,0,1,1.4,2.68V65.35C224.39,66.38,223.76,66.86,223,66.41Z"/><path class="cls-17" d="M211.44,51.9c0,.75-.53,1.05-1.18.68a2.61,2.61,0,0,1-1.17-2c0-.75.53-1.06,1.17-.68A2.58,2.58,0,0,1,211.44,51.9Z"/><path class="cls-17" d="M215,54c0,.74-.53,1-1.18.67a2.57,2.57,0,0,1-1.17-2c0-.75.52-1.05,1.17-.68A2.62,2.62,0,0,1,215,54Z"/><path class="cls-17" d="M218.55,56c0,.75-.52,1.05-1.17.68a2.61,2.61,0,0,1-1.17-2c0-.75.52-1,1.17-.67A2.57,2.57,0,0,1,218.55,56Z"/><path class="cls-51" d="M140.07,29,123,19.11a.9.9,0,0,0-.89-.07h0l-1.65,1,1.16.42V32.85A3.27,3.27,0,0,0,123,35.47l16.32,9.43v1.46l1.67-1h0a1.2,1.2,0,0,0,.47-1.1V31.6A3.31,3.31,0,0,0,140.07,29Z"/><path class="cls-52" d="M138.39,46.31l-17.08-9.86a3.3,3.3,0,0,1-1.37-2.63V21.12c0-1,.61-1.47,1.37-1l17.08,9.86a3.33,3.33,0,0,1,1.37,2.63v12.7C139.76,46.28,139.14,46.74,138.39,46.31Z"/><path class="cls-17" d="M127.05,32.07c0,.74-.51,1-1.15.67a2.55,2.55,0,0,1-1.15-2c0-.73.51-1,1.15-.66A2.52,2.52,0,0,1,127.05,32.07Z"/><path class="cls-17" d="M130.54,34.09c0,.73-.51,1-1.15.66a2.54,2.54,0,0,1-1.15-2c0-.74.51-1,1.15-.67A2.54,2.54,0,0,1,130.54,34.09Z"/><path class="cls-17" d="M134,36.1c0,.74-.51,1-1.15.67a2.54,2.54,0,0,1-1.15-2c0-.73.51-1,1.15-.66A2.52,2.52,0,0,1,134,36.1Z"/></svg>