<svg id="Capa_1" data-name="Capa 1" xmlns="http://www.w3.org/2000/svg" xmlns:xlink="http://www.w3.org/1999/xlink" viewBox="0 0 256 256"><defs><style>.cls-1{fill:url(#linear-gradient);}.cls-2{fill:url(#linear-gradient-2);}.cls-3{fill:url(#linear-gradient-3);}.cls-4{fill:url(#linear-gradient-4);}.cls-5{fill:url(#linear-gradient-5);}</style><linearGradient id="linear-gradient" x1="18.16" y1="128" x2="215.08" y2="128" gradientUnits="userSpaceOnUse"><stop offset="0" stop-color="#f18a00"/><stop offset="1" stop-color="#cf300e"/></linearGradient><linearGradient id="linear-gradient-2" x1="19.19" y1="137.59" x2="180.48" y2="137.59" gradientUnits="userSpaceOnUse"><stop offset="0" stop-color="#232247"/><stop offset="1" stop-color="#3d619b"/></linearGradient><linearGradient id="linear-gradient-3" x1="47.22" y1="184.57" x2="165.88" y2="184.57" xlink:href="#linear-gradient-2"/><linearGradient id="linear-gradient-4" x1="171.72" y1="91.95" x2="237.84" y2="91.95" xlink:href="#linear-gradient-2"/><linearGradient id="linear-gradient-5" x1="112.34" y1="60.57" x2="152.55" y2="60.57" xlink:href="#linear-gradient-2"/></defs><path class="cls-1" d="M20,2.51S-1.4,61.86,101.68,110.21c0,0,153.66,56.59,68.1,143.28,0,0,91.39-72.09,14.56-127.75S55,89.2,20,2.51Z"/><path class="cls-2" d="M20,57.27s4.87,42.89,84.62,76.66,75.82,62,75.82,84c0,0-6.78-42.89-73.88-68.44S14.18,90.14,20,57.27Z"/><polygon class="cls-3" points="47.23 116.58 125.03 252.56 165.88 185.02 138.64 163.13 126.98 181.37 102.65 143.97 47.23 116.58"/><path class="cls-4" d="M197,60l-25.25,44.72s25.25,14.61,27.21,20.09l38.91-65.73Z"/><path class="cls-5" d="M152.55,60.56c0,10.41-9,18.86-20.12,18.86S112.34,71,112.34,60.56s9-18.85,20.09-18.85S152.55,50.16,152.55,60.56Z"/></svg>